<?xml version="1.0" standalone="no"?>
<!DOCTYPE svg PUBLIC "-//W3C//DTD SVG 20010904//EN"
 "http://www.w3.org/TR/2001/REC-SVG-20010904/DTD/svg10.dtd">
<svg version="1.0" xmlns="http://www.w3.org/2000/svg"
 width="72.000000pt" height="72.000000pt" viewBox="0 0 72.000000 72.000000"
 preserveAspectRatio="xMidYMid meet">
<metadata>
Created by potrace 1.11, written by Peter Selinger 2001-2013
</metadata>
<g transform="translate(0.000000,72.000000) scale(0.100000,-0.100000)"
fill="#000000" stroke="none">
<path d="M0 360 l0 -360 360 0 360 0 0 360 0 360 -360 0 -360 0 0 -360z m476
262 c47 -24 105 -83 130 -132 11 -22 19 -66 22 -116 4 -72 1 -89 -20 -135 -34
-74 -69 -113 -130 -143 -87 -44 -187 -34 -271 26 l-32 23 121 5 c127 6 158 16
188 63 29 44 30 89 2 130 -21 30 -23 39 -12 43 24 9 48 72 41 104 -12 53 -46
70 -144 70 -125 -1 -123 3 -161 -210 -17 -96 -35 -179 -39 -183 -13 -13 -50
55 -67 125 -13 53 -14 75 -5 119 23 110 99 200 192 228 49 15 139 7 185 -17z
m-48 -134 c16 -16 16 -70 0 -86 -13 -13 -85 -16 -112 -6 -16 6 -21 41 -10 82
6 19 13 22 58 22 29 0 57 -5 64 -12z m-16 -175 c22 -20 24 -76 3 -93 -15 -12
-137 -11 -150 1 -3 4 0 29 6 58 l11 51 56 0 c38 0 61 -5 74 -17z"/>
</g>
</svg>
